<?xml version="1.0" encoding="utf-8"?>
<!-- Generator: Adobe Illustrator 27.0.1, SVG Export Plug-In . SVG Version: 6.00 Build 0)  -->
<svg version="1.1" id="Layer_1" xmlns="http://www.w3.org/2000/svg" xmlns:xlink="http://www.w3.org/1999/xlink" x="0px" y="0px"
	 viewBox="0 0 595.3 841.9" style="enable-background:new 0 0 595.3 841.9;" xml:space="preserve">
<style type="text/css">
	.st0{fill:#113328;}
</style>
<path class="st0" d="M297.6,96.2c149.4,0,270.6,40.4,270.6,108.2l0,0v432.9c0,68.7-119.4,108.2-270.6,108.2
	c-148.2,0-265.9-38-270.4-104.2l-0.1-4V204.5l0.1-4C31.8,135.1,151.2,96.2,297.6,96.2z M297.6,529.2c-89.2,0-167.4-13.8-216.5-39.2
	l0,147.4c0,22.6,95.2,54.1,216.5,54.1c118.5,0,212-30,216.3-52.5l0.2-1.6l0-147.4C465,515.4,386.9,529.2,297.6,529.2z M81.2,420.9
	c0,22.6,95.2,54.1,216.5,54.1c118.5,0,212-30,216.3-52.5l0.2-1.6l0-148.1c-49.4,25.7-128,39.9-216.5,39.9
	c-88.5,0-167.1-14.2-216.5-39.8L81.2,420.9z M297.6,150.4l-8.3,0.1c-115.8,1.4-208.2,32.7-208.2,54.1c0,21.8,96.8,54.1,216.5,54.1
	s216.5-32.3,216.5-54.1S417.3,150.4,297.6,150.4L297.6,150.4z"/>
</svg>
