<?xml version="1.0" encoding="utf-8"?>
<!-- Generator: Adobe Illustrator 27.0.1, SVG Export Plug-In . SVG Version: 6.00 Build 0)  -->
<svg version="1.1" id="Layer_1" xmlns="http://www.w3.org/2000/svg" xmlns:xlink="http://www.w3.org/1999/xlink" x="0px" y="0px"
	 viewBox="0 0 84 51" style="enable-background:new 0 0 84 51;" xml:space="preserve">
<style type="text/css">
	.st0{fill-rule:evenodd;clip-rule:evenodd;fill:#4BD0EA;stroke:#FFFFFF;}
	.st1{fill-rule:evenodd;clip-rule:evenodd;fill:#F3F3F3;stroke:#FFFFFF;}
	.st2{fill:#8E9AA0;}
	.st3{font-family:'ArialMT';}
	.st4{font-size:12px;}
</style>
<g id="Re-integration-of-wheel">
	<g id="All-wheels" transform="translate(-50.000000, -232.000000)">
		<g id="Group-17-Copy-8" transform="translate(50.000000, 232.000000)">
			<g id="Group-16-Copy-4" transform="translate(7.000000, 0.000000)">
				<path id="Segment-1" class="st0" d="M6.7,15l10.4,7.6c-2.4,3.4-3.7,7.5-3.8,11.6l0,0H0.5C0.6,27.3,2.8,20.6,6.7,15L6.7,15z"/>
				<path id="Segment-2" class="st0" d="M23.6,2.3l4,12.2c-3.9,1.4-7.4,3.9-9.9,7.2l0,0L7.3,14.2C11.4,8.7,17.1,4.6,23.6,2.3
					L23.6,2.3z"/>
				<path id="Segment-3" class="st0" d="M24.6,2c6.6-2,13.6-2,20.2,0l0,0l-4,12.2c-4-1.2-8.2-1.2-12.2,0l0,0L24.6,2z"/>
				<path id="Segment-4" class="st1" d="M45.7,2.3C52.2,4.6,57.9,8.7,62,14.2l0,0l-10.4,7.6c-2.5-3.3-6-5.8-9.9-7.2l0,0L45.7,2.3z"
					/>
				<path id="Segment-5" class="st1" d="M62.6,15c4,5.6,6.1,12.3,6.2,19.2l0,0H55.9c-0.1-4.2-1.4-8.2-3.8-11.6l0,0L62.6,15z"/>
			</g>
			<text transform="matrix(1 0 0 1 0 48)" class="st2 st3 st4">Silver metadata</text>
		</g>
	</g>
</g>
</svg>
