<?xml version="1.0" encoding="UTF-8"?><svg id="Layer_1" xmlns="http://www.w3.org/2000/svg" xmlns:xlink="http://www.w3.org/1999/xlink" viewBox="0 0 109.91 47.85"><defs><style>.cls-1{fill:url(#linear-gradient);}.cls-2{fill:#3c3c3b;}.cls-3{fill:url(#linear-gradient-3);}.cls-4{fill:url(#linear-gradient-2);}</style><linearGradient id="linear-gradient" x1="-217.11" y1="415.87" x2="-215.54" y2="412.19" gradientTransform="translate(2088.03 5327.12) scale(9.3 -12.79)" gradientUnits="userSpaceOnUse"><stop offset=".19" stop-color="#3db28c"/><stop offset=".33" stop-color="#3dae8d"/><stop offset=".45" stop-color="#3fa291"/><stop offset=".58" stop-color="#418f97"/><stop offset=".7" stop-color="#4474a0"/><stop offset=".79" stop-color="#475da7"/></linearGradient><linearGradient id="linear-gradient-2" x1="-218.92" y1="415.15" x2="-217.17" y2="411.41" gradientTransform="translate(2277.32 5202.65) scale(9.98 -12.55)" gradientUnits="userSpaceOnUse"><stop offset=".19" stop-color="#3db28c"/><stop offset=".33" stop-color="#3dae8d"/><stop offset=".45" stop-color="#3fa291"/><stop offset=".58" stop-color="#418f97"/><stop offset=".7" stop-color="#4474a0"/><stop offset=".79" stop-color="#475da7"/></linearGradient><linearGradient id="linear-gradient-3" x1="-216.31" y1="414" x2="-214.76" y2="410.35" gradientTransform="translate(2094.92 5327.31) scale(9.33 -12.87)" gradientUnits="userSpaceOnUse"><stop offset=".19" stop-color="#3db28c"/><stop offset=".33" stop-color="#3dae8d"/><stop offset=".45" stop-color="#3fa291"/><stop offset=".58" stop-color="#418f97"/><stop offset=".7" stop-color="#4474a0"/><stop offset=".79" stop-color="#475da7"/></linearGradient></defs><g id="Style-Guide"><g id="Style-guide"><g id="logo-_-colour"><path id="Path" class="cls-2" d="M.02,15.32c-.02-.11,.02-.23,.1-.31,.08-.08,.19-.12,.31-.11h.47c.11-.01,.23,.03,.31,.11s.12,.19,.1,.31v2.55h3.25v-2.55c-.02-.11,.02-.23,.1-.31,.08-.08,.2-.12,.31-.11h.47c.11-.01,.23,.03,.31,.11,.08,.08,.12,.19,.1,.31v6.16c.02,.11-.02,.23-.1,.31-.08,.08-.2,.12-.31,.11h-.47c-.12,.02-.23-.02-.31-.1s-.12-.2-.1-.31v-2.52H1.3v2.52c.02,.11-.02,.23-.1,.31-.08,.08-.2,.12-.31,.11H.42c-.11,.01-.23-.02-.31-.11-.08-.08-.12-.2-.1-.31v-6.16Z"/><path id="Shape" class="cls-2" d="M9.36,16.77c1.45,0,2.26,1.02,2.26,2.39-.01,.22-.19,.39-.42,.41h-3.13c.01,.39,.18,.75,.47,1.01,.29,.26,.67,.4,1.06,.38,.39,0,.77-.12,1.1-.32,.25-.12,.43-.09,.56,.14l.12,.2c.06,.09,.08,.2,.06,.31-.03,.11-.1,.19-.2,.24-.52,.32-1.12,.5-1.73,.5-.72,.04-1.43-.23-1.95-.73-.52-.5-.81-1.19-.79-1.9-.05-.7,.21-1.38,.7-1.88,.49-.5,1.18-.77,1.89-.75h0Zm1,2.06c.03-.29-.07-.57-.26-.79s-.47-.34-.77-.34c-.64,0-1.17,.48-1.23,1.11h2.26Z"/><path id="Shape-2" class="cls-2" d="M15.03,18.79h.21v-.12c.02-.25-.07-.5-.25-.67-.18-.17-.44-.25-.69-.22-.37,.01-.73,.11-1.06,.28-.25,.11-.44,.07-.56-.17l-.1-.19c-.07-.09-.09-.21-.06-.31,.03-.11,.11-.19,.22-.24,.51-.26,1.09-.4,1.67-.4,1.32,0,2.11,.73,2.11,2v2.72c.02,.11-.02,.23-.1,.31s-.2,.12-.31,.1h-.34c-.11,.01-.23-.02-.31-.11-.08-.08-.12-.2-.1-.31v-.2c0-.07,0-.14,.02-.21h-.02c-.32,.57-.93,.93-1.6,.93-.43,.03-.86-.11-1.18-.4-.32-.29-.51-.69-.51-1.12,0-1.46,1.84-1.71,2.98-1.71Zm-.95,2.26c.68-.07,1.2-.64,1.17-1.32v-.17h-.21c-.64,0-1.73,.1-1.73,.84,0,.19,.1,.36,.24,.48,.15,.12,.34,.18,.52,.16h0Z"/><path id="Path-2" class="cls-2" d="M17.58,15.32c-.02-.11,.02-.23,.1-.31,.08-.08,.19-.12,.31-.11h.44c.11-.01,.23,.03,.31,.11,.08,.08,.12,.19,.1,.31v4.91c0,.49,.21,.58,.4,.6,.09,0,.17,.05,.23,.11,.06,.07,.09,.15,.08,.24v.34c.02,.11-.02,.23-.1,.31-.08,.08-.2,.12-.31,.11-.68,0-1.55-.18-1.55-1.62v-5.01Z"/><path id="Path-3" class="cls-2" d="M20.52,17.94h-.27c-.11,.01-.23-.02-.31-.11-.08-.08-.12-.2-.1-.31v-.17c-.01-.11,.03-.23,.11-.31,.08-.08,.2-.12,.31-.11h.29v-1.02c-.01-.11,.03-.23,.11-.31,.08-.08,.2-.12,.31-.11h.4c.12-.01,.23,.03,.31,.11,.08,.08,.12,.19,.11,.31v1.02h.74c.12-.01,.23,.03,.31,.11,.08,.08,.12,.19,.11,.31v.17c.02,.11-.02,.23-.1,.31-.08,.08-.19,.12-.31,.11h-.75v1.94c-.03,.23,.04,.47,.2,.65,.16,.18,.38,.28,.62,.28,.31,.03,.42,.13,.42,.41v.3c0,.29-.17,.41-.52,.41-.91,0-1.99-.47-1.99-1.86v-2.13Z"/><path id="Path-4" class="cls-2" d="M23.77,15.32c-.01-.11,.03-.23,.11-.31,.08-.08,.2-.12,.31-.11h.43c.12-.01,.23,.03,.31,.11,.08,.08,.12,.2,.1,.31v2.03c0,.14,0,.28-.03,.42h0c.37-.64,1.07-1.02,1.81-1,1.13,0,1.78,.58,1.78,1.91v2.8c.02,.11-.02,.23-.1,.31-.08,.08-.2,.12-.31,.11h-.43c-.12,.02-.23-.02-.32-.1-.08-.08-.12-.2-.11-.31v-2.56c0-.61-.16-1.03-.8-1.03-.89,0-1.47,.71-1.47,1.66v1.92c.02,.11-.02,.23-.1,.31s-.2,.12-.31,.1h-.43c-.12,.02-.23-.02-.32-.1-.08-.08-.12-.2-.11-.31l-.02-6.16Z"/><path id="Shape-3" class="cls-2" d="M32.25,15.32c-.02-.11,.02-.23,.1-.31,.08-.08,.19-.12,.31-.11h2.01c2.19,0,3.62,1.28,3.62,3.49s-1.42,3.5-3.62,3.5h-2.01c-.11,.01-.23-.02-.31-.11-.08-.08-.12-.2-.1-.31v-6.16Zm2.37,5.48c1.42,0,2.37-.84,2.37-2.41s-.95-2.39-2.37-2.39h-1.09v4.8h1.09Z"/><path id="Shape-4" class="cls-2" d="M41.78,18.79h.19v-.12c.02-.25-.07-.5-.25-.67-.18-.17-.44-.25-.69-.22-.37,.01-.73,.11-1.06,.28-.25,.11-.44,.07-.56-.17l-.1-.19c-.07-.09-.09-.21-.06-.31,.03-.11,.11-.19,.21-.24,.52-.27,1.09-.41,1.67-.41,1.32,0,2.11,.73,2.11,2v2.72c.02,.11-.02,.23-.1,.31-.08,.08-.2,.12-.31,.1h-.34c-.11,.01-.23-.02-.31-.11-.08-.08-.12-.2-.1-.31v-.2c0-.07,0-.14,.02-.21h-.02c-.32,.57-.93,.93-1.6,.93-.43,.03-.85-.11-1.16-.39-.32-.28-.5-.68-.51-1.1,0-1.46,1.84-1.71,2.98-1.71Zm-.95,2.26c.68-.07,1.2-.64,1.17-1.32v-.17h-.21c-.64,0-1.73,.1-1.73,.84,0,.19,.1,.36,.24,.48,.14,.12,.33,.18,.52,.16h0Z"/><path id="Path-5" class="cls-2" d="M44.56,17.94h-.27c-.11,.01-.23-.02-.31-.11-.08-.08-.12-.2-.1-.31v-.17c-.01-.11,.03-.23,.11-.31,.08-.08,.2-.12,.31-.11h.29v-1.02c-.01-.11,.03-.23,.11-.31,.08-.08,.2-.12,.31-.11h.4c.12-.01,.23,.03,.31,.11,.08,.08,.12,.19,.11,.31v1.02h.74c.12-.01,.23,.03,.31,.11,.08,.08,.12,.19,.11,.31v.17c.02,.11-.02,.23-.1,.31-.08,.08-.19,.12-.31,.11h-.75v1.94c-.03,.23,.04,.47,.2,.65,.16,.18,.38,.28,.62,.28,.31,.03,.42,.13,.42,.41v.3c0,.29-.17,.41-.52,.41-.91,0-1.99-.47-1.99-1.86v-2.13Z"/><path id="Shape-5" class="cls-2" d="M50.4,18.79h.21v-.12c.02-.25-.07-.5-.26-.67s-.44-.25-.69-.22c-.37,0-.74,.11-1.06,.28-.25,.11-.44,.07-.56-.17l-.1-.19c-.06-.09-.08-.21-.05-.31s.11-.19,.21-.24c.51-.27,1.09-.41,1.67-.41,1.32,0,2.11,.73,2.11,2v2.72c.02,.12-.02,.24-.1,.33s-.21,.12-.34,.1h-.34c-.11,.01-.23-.02-.31-.11-.08-.08-.12-.2-.1-.31v-.2c0-.07,0-.14,0-.21h0c-.33,.57-.94,.93-1.6,.93-.43,.03-.85-.12-1.16-.4-.32-.28-.5-.68-.5-1.11,0-1.46,1.84-1.71,2.98-1.71Zm-.95,2.26c.68-.07,1.2-.64,1.17-1.32v-.17h-.21c-.64,0-1.73,.1-1.73,.84,0,.19,.1,.36,.24,.48,.14,.12,.33,.18,.52,.16h0Z"/><path id="Shape-6" class="cls-2" d="M55.55,15.32c-.02-.11,.02-.22,.1-.31s.19-.12,.31-.11h1.92c.46-.03,.92,.03,1.35,.19,.77,.33,1.24,1.09,1.19,1.91,.03,.81-.43,1.56-1.18,1.91h0c.09,.11,.16,.24,.23,.36l1.17,2.11c.17,.28,.04,.47-.29,.47h-.54c-.2,0-.39-.11-.47-.28l-1.25-2.33h-1.24v2.19c.02,.11-.02,.23-.1,.31s-.2,.12-.31,.11h-.47c-.27,0-.41-.14-.41-.41v-6.1Zm2.44,2.85c.3,.02,.61-.08,.82-.3,.22-.21,.32-.51,.3-.81,.03-.4-.19-.77-.56-.93-.24-.09-.51-.13-.77-.12h-.95v2.16h1.16Z"/><path id="Shape-7" class="cls-2" d="M63.7,16.77c1.45,0,2.26,1.02,2.26,2.39,0,.23-.2,.42-.44,.42h-3.11c.01,.39,.18,.75,.47,1.01s.67,.4,1.06,.38c.39,0,.77-.12,1.1-.32,.25-.12,.43-.09,.56,.14l.12,.2c.06,.09,.09,.2,.06,.31-.03,.11-.1,.19-.2,.24-.52,.32-1.12,.5-1.73,.5-.72,.04-1.43-.23-1.95-.73-.52-.5-.8-1.19-.79-1.9-.05-.7,.2-1.39,.69-1.89,.49-.51,1.18-.78,1.89-.76Zm.99,2.04c.02-.28-.07-.56-.27-.77-.19-.21-.47-.33-.76-.33-.64,0-1.17,.48-1.23,1.11h2.25Z"/><path id="Path-6" class="cls-2" d="M66.56,20.93l.12-.18c.15-.21,.32-.22,.57-.1,.34,.21,.73,.33,1.14,.34,.44,0,.71-.2,.71-.51,0-.82-2.53-.51-2.53-2.23,0-.98,.88-1.51,1.95-1.51,.5,0,.99,.12,1.42,.36,.1,.05,.17,.14,.2,.24,.03,.11,0,.22-.05,.31l-.1,.18c-.12,.23-.31,.27-.56,.15-.3-.15-.63-.23-.97-.24-.44,0-.69,.18-.69,.49,0,.82,2.53,.5,2.53,2.21,0,.89-.76,1.54-1.94,1.54-.61,0-1.2-.17-1.7-.51-.1-.05-.17-.15-.19-.26-.02-.11,.01-.22,.09-.31h0Z"/><path id="Shape-8" class="cls-2" d="M73.42,16.77c1.45,0,2.26,1.02,2.26,2.39,0,.23-.2,.42-.44,.42h-3.11c.02,.39,.19,.75,.48,1.01,.29,.26,.68,.39,1.07,.37,.39,0,.77-.12,1.1-.32,.25-.12,.43-.09,.56,.14l.12,.2c.06,.09,.09,.2,.06,.31-.03,.11-.1,.19-.2,.24-.52,.32-1.12,.5-1.73,.5-.73,.04-1.44-.22-1.97-.73s-.81-1.2-.78-1.92c-.04-.69,.22-1.37,.71-1.86,.49-.5,1.17-.77,1.87-.75h0Zm1,2.06c.03-.29-.07-.57-.26-.79-.2-.21-.47-.34-.77-.34-.64,0-1.17,.48-1.23,1.11h2.26Z"/><path id="Shape-9" class="cls-2" d="M79.09,18.79h.21v-.12c.02-.25-.07-.5-.25-.67-.18-.17-.44-.25-.69-.22-.37,.01-.73,.11-1.06,.28-.25,.11-.44,.07-.56-.17l-.1-.19c-.06-.09-.08-.21-.05-.31s.11-.19,.21-.24c.51-.27,1.08-.41,1.67-.41,1.32,0,2.11,.73,2.11,2v2.72c.02,.11-.02,.23-.11,.31-.08,.08-.2,.12-.32,.1h-.34c-.27,0-.41-.14-.41-.41v-.2c0-.07,0-.14,0-.21h0c-.33,.57-.94,.92-1.6,.93-.43,.03-.85-.11-1.17-.39-.32-.28-.51-.68-.52-1.11,0-1.46,1.84-1.71,2.98-1.71Zm-.95,2.26c.68-.07,1.2-.64,1.17-1.32v-.17h-.21c-.64,0-1.73,.1-1.73,.84,.01,.19,.1,.36,.25,.49,.15,.12,.34,.18,.53,.16h0Z"/><path id="Path-7" class="cls-2" d="M81.65,17.28c-.02-.11,.02-.22,.1-.3,.08-.08,.19-.12,.31-.11h.39c.11-.01,.23,.03,.31,.11,.08,.08,.12,.19,.11,.31v.47c0,.11,0,.23-.03,.34h0c.2-.6,.76-1.27,1.48-1.27,.28,0,.38,.14,.38,.41v.38c.01,.11-.03,.23-.12,.31-.08,.08-.2,.12-.32,.11-.95,0-1.38,.9-1.38,1.82v1.61c.02,.11-.02,.23-.1,.31s-.2,.12-.31,.11h-.44c-.27,0-.41-.14-.41-.41l.02-4.18Z"/><path id="Path-8" class="cls-2" d="M87.55,16.77c.59-.02,1.18,.14,1.67,.47,.09,.06,.15,.15,.17,.26s-.02,.22-.09,.3l-.13,.2c-.15,.23-.32,.23-.56,.11-.29-.2-.64-.31-.99-.31-.42,0-.82,.15-1.12,.45-.29,.29-.45,.7-.43,1.11-.03,.43,.13,.84,.43,1.15,.3,.31,.72,.47,1.15,.46,.41,0,.81-.14,1.14-.38,.25-.14,.44-.11,.57,.13l.1,.19c.06,.09,.09,.19,.07,.3s-.08,.2-.18,.25c-.52,.38-1.16,.58-1.81,.58-.98,.04-1.9-.45-2.41-1.28-.5-.83-.5-1.86,0-2.69s1.43-1.32,2.41-1.28h0Z"/><path id="Path-9" class="cls-2" d="M90.3,15.32c-.01-.11,.03-.23,.11-.31,.08-.08,.2-.12,.31-.1h.43c.12-.01,.23,.03,.31,.11,.08,.08,.12,.19,.11,.31v2.03c0,.14-.01,.28-.03,.42h0c.36-.63,1.04-1.02,1.78-1,1.13,0,1.78,.58,1.78,1.91v2.8c.02,.11-.02,.23-.11,.31s-.2,.12-.32,.1h-.43c-.12,.02-.23-.02-.32-.1-.08-.08-.12-.2-.1-.31v-2.56c0-.61-.16-1.03-.8-1.03-.89,0-1.47,.71-1.47,1.66v1.92c.02,.11-.02,.23-.11,.31s-.2,.12-.32,.1h-.42c-.12,.01-.23-.03-.31-.11-.08-.08-.12-.2-.1-.31v-6.16Z"/><path id="Path-10" class="cls-2" d="M.02,25.46c-.02-.11,.02-.23,.1-.31,.08-.08,.19-.12,.31-.11h.47c.11-.01,.23,.03,.31,.11s.12,.19,.1,.31v6.16c.02,.11-.02,.23-.1,.31-.08,.08-.2,.12-.31,.11H.43c-.11,.01-.23-.02-.31-.11-.08-.08-.12-.2-.1-.31v-6.16Z"/><path id="Path-11" class="cls-2" d="M2.58,27.43c-.02-.11,.02-.22,.1-.31s.19-.12,.31-.11h.39c.11-.01,.23,.03,.31,.11,.08,.08,.12,.19,.1,.31v.3c0,.08,0,.15,0,.23h0c.35-.66,1.05-1.08,1.81-1.06,1.13,0,1.78,.58,1.78,1.91v2.8c.02,.11-.02,.23-.11,.31-.08,.08-.2,.12-.32,.1h-.43c-.12,.01-.23-.03-.31-.11-.08-.08-.12-.19-.11-.31v-2.54c0-.61-.16-1.02-.8-1.02-.9,0-1.47,.74-1.47,1.64v1.94c.02,.11-.02,.23-.1,.31-.08,.08-.2,.12-.31,.11h-.44c-.11,.01-.23-.03-.31-.11-.08-.08-.12-.19-.1-.31v-4.19Z"/><path id="Path-12" class="cls-2" d="M8.46,27.43c-.02-.11,.02-.23,.1-.31,.08-.08,.19-.12,.31-.11h.39c.11-.01,.23,.03,.31,.11,.08,.08,.12,.19,.1,.31v.3c0,.08,0,.15-.02,.23h.02c.35-.67,1.05-1.08,1.81-1.06,1.13,0,1.78,.58,1.78,1.91v2.8c.02,.11-.02,.23-.1,.31-.08,.08-.2,.12-.31,.1h-.43c-.12,.01-.23-.03-.31-.11-.08-.08-.12-.19-.11-.31v-2.54c0-.61-.16-1.02-.8-1.02-.9,0-1.47,.74-1.47,1.64v1.94c.02,.11-.02,.22-.1,.31-.08,.08-.19,.12-.31,.11h-.44c-.11,.01-.23-.02-.31-.11-.08-.08-.12-.2-.1-.31v-4.19Z"/><path id="Shape-10" class="cls-2" d="M16.83,26.89c1.46,.06,2.6,1.26,2.56,2.7s-1.25,2.57-2.71,2.55c-1.46-.02-2.63-1.19-2.63-2.63,0-.71,.3-1.4,.83-1.89,.52-.49,1.23-.76,1.95-.73Zm0,4.19c.65,.03,1.25-.33,1.53-.91,.27-.58,.16-1.27-.29-1.73s-1.14-.61-1.74-.38c-.6,.24-1,.81-1,1.45-.02,.41,.13,.8,.42,1.1,.28,.29,.68,.46,1.09,.46h0Z"/><path id="Path-13" class="cls-2" d="M19.98,27.49c-.1-.28,0-.47,.33-.47h.47c.22-.02,.43,.13,.47,.34l.95,2.76c.08,.25,.14,.5,.19,.76h0c.04-.26,.1-.52,.18-.77l.95-2.76c.05-.21,.25-.35,.47-.33h.47c.31,0,.44,.19,.34,.47l-1.52,4.19c-.05,.21-.25,.36-.47,.34h-.8c-.22,.02-.43-.12-.47-.34l-1.55-4.19Z"/><path id="Shape-11" class="cls-2" d="M28.11,28.93h.21v-.12c.02-.25-.07-.5-.26-.67-.18-.17-.44-.25-.69-.22-.37,0-.74,.11-1.06,.29-.09,.06-.21,.08-.32,.05-.11-.03-.2-.11-.24-.21l-.1-.19c-.06-.09-.08-.21-.05-.31,.03-.11,.11-.2,.21-.24,.51-.26,1.09-.41,1.67-.41,1.32,0,2.11,.73,2.11,1.99v2.73c.02,.11-.02,.23-.11,.31-.08,.08-.2,.12-.32,.1h-.34c-.11,.01-.23-.03-.31-.11-.08-.08-.12-.19-.1-.31v-.2c0-.07,0-.15,0-.22h0c-.32,.58-.93,.94-1.6,.95-.43,.03-.85-.11-1.17-.39-.32-.28-.51-.69-.52-1.11,0-1.47,1.84-1.71,2.97-1.71Zm-.95,2.26c.68-.07,1.2-.64,1.17-1.32v-.19h-.21c-.64,0-1.73,.1-1.73,.85,0,.19,.09,.37,.24,.5s.34,.18,.53,.16h0Z"/><path id="Path-14" class="cls-2" d="M30.89,28.07h-.27c-.27,0-.41-.14-.41-.41v-.17c-.02-.11,.02-.23,.1-.31,.08-.08,.2-.12,.31-.11h.29v-1.03c-.01-.11,.03-.23,.11-.31,.08-.08,.2-.12,.31-.11h.4c.11-.01,.23,.03,.31,.11,.08,.08,.12,.19,.11,.31v1.03h.74c.12-.01,.23,.03,.31,.11,.08,.08,.12,.19,.11,.31v.16c.02,.11-.02,.23-.1,.31-.08,.08-.19,.12-.31,.11h-.74v1.95c-.03,.23,.04,.47,.2,.65,.16,.18,.38,.28,.62,.29,.31,.03,.42,.13,.42,.4v.34c0,.29-.17,.41-.52,.41-.91,0-1.99-.47-1.99-1.84v-2.19Z"/><path id="Shape-12" class="cls-2" d="M34.14,25.75v-.29c-.02-.11,.02-.23,.1-.31,.08-.08,.19-.12,.31-.11h.44c.11-.01,.23,.03,.31,.11s.12,.19,.11,.31v.29c.01,.11-.03,.22-.11,.3s-.19,.12-.31,.1h-.44c-.11,.02-.23-.02-.31-.1s-.12-.19-.11-.3Zm0,1.67c-.02-.11,.02-.23,.1-.31,.08-.08,.19-.12,.31-.11h.44c.11-.01,.23,.03,.31,.11,.08,.08,.12,.19,.1,.31v4.19c.02,.11-.02,.22-.1,.31-.08,.08-.19,.12-.31,.11h-.44c-.11,.01-.23-.02-.31-.11-.08-.08-.12-.2-.1-.31v-4.19Z"/><path id="Shape-13" class="cls-2" d="M39.04,26.89c1.46,.07,2.58,1.28,2.54,2.71-.05,1.43-1.26,2.56-2.71,2.54s-2.63-1.19-2.62-2.63c0-.72,.31-1.4,.84-1.9,.53-.49,1.24-.76,1.97-.73h0Zm0,4.19c.65,.03,1.25-.33,1.53-.91,.27-.58,.16-1.27-.29-1.73-.45-.46-1.14-.61-1.74-.38-.6,.24-1,.81-1,1.45-.02,.41,.13,.8,.42,1.1,.29,.29,.68,.46,1.09,.46h0Z"/><path id="Path-15" class="cls-2" d="M42.68,27.43c-.01-.11,.02-.22,.1-.3,.08-.08,.19-.12,.31-.11h.39c.11-.01,.23,.03,.31,.11s.12,.19,.1,.31v.3c0,.08,0,.15,0,.23h0c.35-.66,1.05-1.08,1.81-1.06,1.13,0,1.78,.58,1.78,1.91v2.8c.02,.11-.02,.23-.1,.31-.08,.08-.2,.12-.31,.1h-.43c-.12,.01-.23-.03-.31-.11-.08-.08-.12-.19-.11-.31v-2.54c0-.61-.16-1.02-.8-1.02-.9,0-1.47,.74-1.47,1.64v1.94c.02,.11-.02,.23-.1,.31-.08,.08-.2,.12-.31,.11h-.44c-.11,.01-.23-.03-.31-.11-.08-.08-.12-.19-.1-.31v-4.19Z"/><path id="Path-16" class="cls-2" d="M54.4,24.93c.82-.01,1.63,.21,2.32,.64,.1,.06,.17,.15,.18,.26s-.02,.22-.09,.31l-.18,.27c-.15,.23-.33,.25-.58,.11-.47-.28-1.02-.43-1.58-.43-.66-.03-1.29,.22-1.75,.68-.46,.46-.7,1.09-.66,1.74-.04,.64,.19,1.28,.64,1.74,.45,.47,1.07,.74,1.73,.73,.68,.01,1.34-.27,1.8-.77v-.78h-.68c-.12,.01-.23-.03-.31-.11s-.12-.19-.11-.31v-.27c-.01-.11,.03-.23,.11-.31,.08-.08,.2-.12,.31-.11h1.42c.11-.01,.23,.03,.31,.11,.08,.08,.12,.19,.1,.31v2.85c.02,.11-.02,.22-.1,.31-.08,.08-.19,.12-.31,.11h-.25c-.27,0-.41-.14-.41-.34v-.17c0-.06,0-.11,0-.17h0c-.56,.53-1.31,.82-2.09,.79-.95,0-1.86-.38-2.52-1.06-.66-.68-1.01-1.59-.97-2.52-.03-.97,.34-1.91,1.03-2.6,.69-.69,1.65-1.07,2.63-1.04h0Z"/><path id="Shape-14" class="cls-2" d="M60.98,28.93h.21v-.12c.02-.25-.07-.5-.26-.67-.18-.17-.44-.25-.69-.22-.37,0-.74,.11-1.06,.29-.09,.06-.21,.08-.32,.05-.11-.03-.2-.11-.24-.21l-.1-.19c-.06-.09-.08-.21-.05-.31,.03-.11,.11-.2,.21-.24,.51-.26,1.09-.41,1.67-.41,1.32,0,2.11,.73,2.11,1.99v2.73c.02,.11-.02,.23-.11,.31-.08,.08-.2,.12-.32,.1h-.34c-.11,.01-.23-.03-.31-.11-.08-.08-.12-.19-.1-.31v-.2c0-.07,0-.15,0-.22h0c-.33,.57-.94,.92-1.6,.93-.43,.03-.85-.11-1.17-.39-.32-.28-.51-.69-.52-1.11,0-1.45,1.84-1.7,2.97-1.7Zm-.95,2.26c.68-.07,1.2-.64,1.17-1.32v-.19h-.21c-.64,0-1.73,.1-1.73,.85,0,.19,.09,.37,.24,.5,.15,.12,.34,.18,.53,.16Z"/><path id="Path-17" class="cls-2" d="M63.75,28.07h-.27c-.11,.01-.23-.02-.31-.11s-.12-.2-.1-.31v-.17c-.01-.11,.03-.23,.11-.31s.2-.12,.31-.11h.29v-1.03c-.02-.12,.02-.24,.11-.33,.09-.08,.21-.12,.33-.1h.4c.11-.01,.23,.03,.31,.11s.12,.19,.11,.31v1.03h.74c.12-.01,.23,.03,.31,.11,.08,.08,.12,.19,.11,.31v.16c.02,.11-.02,.23-.1,.31s-.19,.12-.31,.11h-.75v1.95c-.03,.23,.04,.47,.2,.65,.16,.18,.38,.28,.62,.29,.31,.03,.42,.13,.42,.4v.35c0,.29-.17,.41-.52,.41-.91,0-1.99-.47-1.99-1.84l-.02-2.19Z"/><path id="Shape-15" class="cls-2" d="M69.26,26.89c1.45,0,2.26,1.01,2.26,2.39,0,.23-.2,.42-.44,.42h-3.11c.02,.38,.19,.74,.47,1,.29,.26,.67,.39,1.05,.38,.39,0,.77-.12,1.1-.33,.25-.12,.43-.09,.56,.14l.12,.2c.06,.09,.09,.2,.06,.31-.03,.11-.1,.19-.2,.24-.51,.33-1.1,.5-1.71,.51-.72,.04-1.43-.23-1.95-.73-.52-.5-.81-1.19-.79-1.9-.04-.69,.21-1.37,.7-1.87s1.17-.77,1.87-.76h0Zm1,2.06c.03-.28-.07-.57-.26-.78-.2-.21-.47-.33-.76-.33-.64,0-1.17,.49-1.23,1.11h2.26Z"/><path id="Path-18" class="cls-2" d="M71.93,27.49c-.05-.11-.04-.24,.03-.34s.2-.15,.32-.13h.47c.23-.02,.43,.14,.45,.36l.82,2.9c.06,.27,.1,.53,.1,.53h0s.04-.27,.11-.53l.87-2.91c.03-.22,.24-.38,.47-.35h.38c.23-.03,.44,.13,.47,.35l.85,2.93c.05,.17,.09,.35,.11,.53h0s.04-.27,.11-.53l.81-2.93c.03-.23,.24-.39,.47-.36h.47c.12-.02,.25,.03,.32,.13,.07,.1,.09,.23,.03,.34l-1.31,4.19c-.04,.22-.25,.37-.47,.34h-.67c-.23,.02-.43-.13-.47-.35l-.77-2.51c-.05-.18-.09-.36-.12-.54h0c-.03,.18-.08,.36-.13,.54l-.81,2.54c-.03,.22-.24,.38-.47,.35h-.69c-.22,.02-.43-.13-.47-.34l-1.29-4.2Z"/><path id="Shape-16" class="cls-2" d="M82.92,28.93h.21v-.12c.02-.25-.07-.5-.26-.67-.18-.17-.44-.25-.69-.22-.37,0-.73,.11-1.06,.29-.09,.06-.21,.08-.32,.05s-.2-.11-.24-.21l-.1-.19c-.06-.09-.08-.21-.05-.31,.03-.11,.11-.2,.21-.24,.52-.26,1.09-.41,1.67-.41,1.32,0,2.11,.73,2.11,1.99v2.73c.02,.11-.02,.23-.11,.31s-.2,.12-.32,.1h-.35c-.11,.01-.23-.02-.31-.11-.08-.08-.12-.2-.1-.31v-.2c0-.07,0-.15,0-.22h0c-.33,.57-.94,.93-1.6,.93-.43,.03-.85-.11-1.17-.39-.32-.28-.5-.69-.51-1.11,0-1.45,1.85-1.7,2.99-1.7Zm-.95,2.26c.69-.06,1.21-.64,1.18-1.32v-.19h-.21c-.64,0-1.73,.1-1.73,.85,0,.19,.09,.36,.23,.49,.14,.12,.33,.19,.52,.17h0Z"/><path id="Path-19" class="cls-2" d="M85.5,32.97c.11,.06,.23,.09,.36,.09,.38-.04,.7-.3,.81-.67l.19-.47-1.94-4.44c-.13-.29,0-.47,.32-.47h.54c.22,0,.41,.13,.47,.34l.95,2.56c.09,.27,.19,.68,.19,.68h.03s.09-.39,.17-.66l.9-2.57c.04-.22,.25-.37,.47-.34h.5c.31,0,.44,.19,.34,.47l-2.1,5.29c-.25,.79-1,1.32-1.84,1.32-.24,0-.48-.06-.71-.15-.11-.03-.19-.12-.23-.22-.04-.1-.02-.22,.04-.31l.09-.21c.06-.19,.26-.29,.45-.24h0Z"/><polygon id="Path-20" class="cls-1" points="77.73 44.46 77.73 35.06 75.92 35.06 75.92 47.85 85.22 41.57 84.19 40.1 77.73 44.46"/><polygon id="Path-21" class="cls-4" points="101.01 18.39 99.93 19.82 106.8 24.86 99.96 29.47 100.98 30.94 109.91 24.92 101.01 18.39"/><polygon id="Path-22" class="cls-3" points="75.92 12.87 77.73 12.87 77.73 3.55 84.17 8.27 85.24 6.84 75.92 0 75.92 12.87"/></g></g></g></svg>