<?xml version="1.0" encoding="utf-8"?>
<!-- Generator: Adobe Illustrator 27.0.1, SVG Export Plug-In . SVG Version: 6.00 Build 0)  -->
<svg version="1.1" id="Layer_1" xmlns="http://www.w3.org/2000/svg" xmlns:xlink="http://www.w3.org/1999/xlink" x="0px" y="0px"
	 viewBox="0 0 24 24" style="enable-background:new 0 0 24 24;" xml:space="preserve">
<style type="text/css">
	.st0{fill-rule:evenodd;clip-rule:evenodd;fill:#475DA7;}
	.st1{filter:url(#Adobe_OpacityMaskFilter);}
	.st2{fill-rule:evenodd;clip-rule:evenodd;fill:#FFFFFF;}
	.st3{mask:url(#mask-shield_00000079448605640943127870000007711185961860548994_);}
</style>
<g id="icon_x2F_shield">
	<g id="Combined-Shape">
		<path id="shield_00000036953716056895411090000011648415163190059671_" class="st0" d="M12.3,2.1l7.2,3.5C19.8,5.7,20,6,20,6.3
			c0,3.7-0.5,6.5-1.7,8.9c-1.2,2.4-3.1,4.2-5.9,6c-0.2,0.2-0.6,0.2-0.8,0c-2.8-1.7-4.7-3.6-5.9-6C4.5,12.8,4,9.9,4,6.3
			C4,6,4.2,5.7,4.5,5.6l7.2-3.5C11.9,2,12.1,2,12.3,2.1z M15.7,8.1C15.5,7.9,15,8,14.8,8.2l0,0l-4.2,5.2L9.1,12
			c-0.3-0.2-0.7-0.2-0.9,0c-0.3,0.2-0.3,0.6,0,0.9l0,0l2,1.9c0.1,0.1,0.3,0.2,0.5,0.2l0,0h0c0.2,0,0.4-0.1,0.5-0.2l0,0L15.9,9
			C16.1,8.8,16,8.4,15.7,8.1z"/>
	</g>
	<defs>
		<filter id="Adobe_OpacityMaskFilter" filterUnits="userSpaceOnUse" x="0" y="0" width="24" height="24">
			<feColorMatrix  type="matrix" values="1 0 0 0 0  0 1 0 0 0  0 0 1 0 0  0 0 0 1 0"/>
		</filter>
	</defs>
	
		<mask maskUnits="userSpaceOnUse" x="0" y="0" width="24" height="24" id="mask-shield_00000079448605640943127870000007711185961860548994_">
		<g class="st1">
			<path id="shield_00000166671933677808136620000015105889274708831634_" class="st2" d="M12.3,2.1l7.2,3.5C19.8,5.7,20,6,20,6.3
				c0,3.7-0.5,6.5-1.7,8.9c-1.2,2.4-3.1,4.2-5.9,6c-0.2,0.2-0.6,0.2-0.8,0c-2.8-1.7-4.7-3.6-5.9-6C4.5,12.8,4,9.9,4,6.3
				C4,6,4.2,5.7,4.5,5.6l7.2-3.5C11.9,2,12.1,2,12.3,2.1z M15.7,8.1C15.5,7.9,15,8,14.8,8.2l0,0l-4.2,5.2L9.1,12
				c-0.3-0.2-0.7-0.2-0.9,0c-0.3,0.2-0.3,0.6,0,0.9l0,0l2,1.9c0.1,0.1,0.3,0.2,0.5,0.2l0,0h0c0.2,0,0.4-0.1,0.5-0.2l0,0L15.9,9
				C16.1,8.8,16,8.4,15.7,8.1z"/>
		</g>
	</mask>
	<g id="Group" class="st3">
		<g id="colour">
			<rect id="Rectangle" y="0" class="st0" width="24" height="24"/>
		</g>
	</g>
</g>
</svg>
