<?xml version="1.0" encoding="utf-8"?>
<!-- Generator: Adobe Illustrator 27.0.1, SVG Export Plug-In . SVG Version: 6.00 Build 0)  -->
<svg version="1.1" id="Layer_1" xmlns="http://www.w3.org/2000/svg" xmlns:xlink="http://www.w3.org/1999/xlink" x="0px" y="0px"
	 viewBox="0 0 16 16" style="enable-background:new 0 0 16 16;" xml:space="preserve">
<style type="text/css">
	.st0{fill:#475DA7;}
	.st1{filter:url(#Adobe_OpacityMaskFilter);}
	.st2{fill-rule:evenodd;clip-rule:evenodd;fill:#FFFFFF;}
	.st3{mask:url(#mask-info_00000016066864257493910350000015676492358147006369_);}
	.st4{fill:none;}
</style>
<g id="icon-_x2F_-info">
	<g id="Combined-Shape">
		<path id="info_00000033366580134653719160000007577815731063903167_" class="st0" d="M8,0c4.4,0,8,3.6,8,8s-3.6,8-8,8s-8-3.6-8-8
			S3.6,0,8,0z M8,1.3c-3.7,0-6.7,3-6.7,6.7s3,6.7,6.7,6.7s6.7-3,6.7-6.7S11.7,1.3,8,1.3z M8,11.3c0.4,0,0.7,0.3,0.7,0.7
			c0,0.4-0.3,0.7-0.7,0.7c-0.4,0-0.7-0.3-0.7-0.7C7.3,11.6,7.6,11.3,8,11.3z M10.7,4.5c0.7,1.2,0.3,2.6-0.8,3.6L9.6,8.4
			C8.9,9,8.7,9.3,8.7,9.6l0,0.1v0.7H7.3V9.7c0-0.9,0.4-1.5,1.6-2.5c0.8-0.7,1-1.4,0.7-2C9.3,4.6,8.1,4.5,7,4.9L6.8,5L6.2,5.3L5.7,4
			l0.6-0.3C8,3,10,3.2,10.7,4.5z"/>
	</g>
	<defs>
		<filter id="Adobe_OpacityMaskFilter" filterUnits="userSpaceOnUse" x="0" y="0" width="16" height="16">
			<feColorMatrix  type="matrix" values="1 0 0 0 0  0 1 0 0 0  0 0 1 0 0  0 0 0 1 0"/>
		</filter>
	</defs>
	
		<mask maskUnits="userSpaceOnUse" x="0" y="0" width="16" height="16" id="mask-info_00000016066864257493910350000015676492358147006369_">
		<g class="st1">
			<path id="info_00000176028986176889288860000000564074395264904120_" class="st2" d="M8,0c4.4,0,8,3.6,8,8s-3.6,8-8,8s-8-3.6-8-8
				S3.6,0,8,0z M8,1.3c-3.7,0-6.7,3-6.7,6.7s3,6.7,6.7,6.7s6.7-3,6.7-6.7S11.7,1.3,8,1.3z M8,11.3c0.4,0,0.7,0.3,0.7,0.7
				c0,0.4-0.3,0.7-0.7,0.7c-0.4,0-0.7-0.3-0.7-0.7C7.3,11.6,7.6,11.3,8,11.3z M10.7,4.5c0.7,1.2,0.3,2.6-0.8,3.6L9.6,8.4
				C8.9,9,8.7,9.3,8.7,9.6l0,0.1v0.7H7.3V9.7c0-0.9,0.4-1.5,1.6-2.5c0.8-0.7,1-1.4,0.7-2C9.3,4.6,8.1,4.5,7,4.9L6.8,5L6.2,5.3L5.7,4
				l0.6-0.3C8,3,10,3.2,10.7,4.5z"/>
		</g>
	</mask>
	<g id="colour_x2F_purple" class="st3">
		<rect id="Rectangle" y="0" class="st4" width="16" height="16"/>
	</g>
</g>
</svg>
